<svg xmlns="http://www.w3.org/2000/svg" width="200" height="200"><g fill="none" fill-rule="evenodd"><path fill="#C4E456" d="M0 0h200v200H0z"/><path fill="#3C402B" fill-rule="nonzero" d="M102.31 31.008H53.532A3.533 3.533 0 0 0 50 34.54v86.68a46.926 46.926 0 0 0 46.851 46.882 3.527 3.527 0 0 0 2.499-1.035 3.536 3.536 0 0 0 1.034-2.498v-39.815h1.895A46.879 46.879 0 0 0 150 77.881a46.882 46.882 0 0 0-47.72-46.873h.03zm-9.022 129.878A39.859 39.859 0 0 1 57.202 124.8h36.086v36.086zm0-54.625L59.262 38.074h34.086l-.06 68.187zm9.021 11.427h-1.894V38.074h1.894a39.814 39.814 0 1 1 0 79.614z"/></g></svg>