<svg xmlns="http://www.w3.org/2000/svg" viewBox="0 0 256 256" focusable="false" color="var(--token-3d5168aa-fd3f-4495-a56a-e4a0f7ac5209, rgb(183, 171, 152))" style="user-select: none; width: 100%; height: 100%; display: inline-block; fill: var(--token-3d5168aa-fd3f-4495-a56a-e4a0f7ac5209, rgb(183, 171, 152)); color: var(--token-3d5168aa-fd3f-4495-a56a-e4a0f7ac5209, rgb(183, 171, 152)); flex-shrink: 0;"><g color="var(--token-3d5168aa-fd3f-4495-a56a-e4a0f7ac5209, rgb(183, 171, 152))" weight="regular"><path d="M24,184H232a8,8,0,0,0,0-16h-8V152a96.12,96.12,0,0,0-88-95.66V40h16a8,8,0,0,0,0-16H104a8,8,0,0,0,0,16h16V56.34A96.12,96.12,0,0,0,32,152v16H24a8,8,0,0,0,0,16Zm24-32a80,80,0,0,1,160,0v16H48Zm192,56a8,8,0,0,1-8,8H24a8,8,0,0,1,0-16H232A8,8,0,0,1,240,208Z"/></g></svg>